# xmcd
#
# Track frame offsets: 
#        150
#        12807
#        28237
#        40507
#        57210
#        69732
#        88860
#        98377
#        111357
#        122690
#        135405
#        147750
#        161892
#        174852
#        188807
#        200860
#        212832
#        229132
#        241600
#        258075
#        274205
#        285885
#        299477
#        310522
#
# Disc length: 4305 seconds
#
# Revision: 3
# Processed by: cddbd v1.5.2PL0 Copyright (c) Steve Scherf et al.
# Submitted via: ExactAudioCopyFreeDBPlugin 1.0
#
DISCID=5010cf18
DTITLE=Claude King - More Than Climbing That Mountain, Wolverton Mount
DTITLE=ain, That Is - Disc 4
DYEAR=1900
DGENRE=Country
TTITLE0=The Power Of Your Sweet Love
TTITLE1=Beertops And Teardrops
TTITLE2=Sweet Love On Your Mind
TTITLE3=Green Mountain
TTITLE4=Four Roses
TTITLE5=I Remember Johnny
TTITLE6=Honky Tonk Man
TTITLE7=First Train Headin' South
TTITLE8=Ole Slewfoot
TTITLE9=North To Alaska
TTITLE10=The Battle Of New Orleans
TTITLE11=Sink The Bismark
TTITLE12=All For The Love Of A Girl
TTITLE13=Whispering Pines
TTITLE14=When It's Springtime In Alaska
TTITLE15=She Knows Why
TTITLE16=The House Of The Rising Sun
TTITLE17=Friend, Lover, Woman, Wife
TTITLE18=When You're Twenty One
TTITLE19=I'll Be Your Baby Tonight
TTITLE20=Turn It Around In Your Mind
TTITLE21=Mary's Vineyard
TTITLE22=Heart
TTITLE23=Johnny Valentine
EXTD=
EXTT0=
EXTT1=
EXTT2=
EXTT3=
EXTT4=
EXTT5=
EXTT6=
EXTT7=
EXTT8=
EXTT9=
EXTT10=
EXTT11=
EXTT12=
EXTT13=
EXTT14=
EXTT15=
EXTT16=
EXTT17=
EXTT18=
EXTT19=
EXTT20=
EXTT21=
EXTT22=
EXTT23=
PLAYORDER=
